<svg width="686" height="317" viewBox="0 0 686 317" fill="none" xmlns="http://www.w3.org/2000/svg">
<path d="M213.93 48.2813C203.579 48.2813 193.942 51.3985 185.899 56.7352C172.184 65.8405 163.117 81.4269 163.117 99.0936C163.117 116.76 172.178 132.34 185.899 141.452C193.936 146.789 203.579 149.906 213.93 149.906C241.947 149.906 264.742 127.111 264.742 99.0936C264.742 71.076 241.947 48.2813 213.93 48.2813Z" stroke="#4631FB" stroke-width="5" stroke-linejoin="bevel"/>
<path d="M7.53262 222.5V174.894H25.0788L33.6479 209.102L34.0559 215.767H35.3481L35.7561 209.102L44.3252 174.894H61.8714V222.5H51.194V181.627H49.8339L49.3578 192.304L41.6049 222.5H27.8671L20.0462 192.304L19.5701 181.627H18.2099V222.5H7.53262ZM86.4405 223.52C79.9117 223.52 75.0151 221.276 72.0907 216.991C70.0504 214.067 68.9623 210.326 68.9623 205.77C68.9623 201.145 70.1865 197.269 72.2267 194.345C75.2191 190.06 80.1837 187.748 85.9644 187.748C96.4377 187.748 102.286 194.345 102.286 205.634V208.354H79.0956C79.3676 210.258 79.8437 211.823 80.6598 212.979C81.8159 214.611 83.5841 215.495 86.2364 215.495C88.8888 215.495 90.997 214.339 91.8131 212.027H102.354C101.198 218.896 94.9415 223.52 86.4405 223.52ZM79.2316 201.893H92.2212C92.0852 197.745 89.9089 195.569 85.9644 195.569C83.7201 195.569 81.8159 196.453 80.5917 198.289C79.9117 199.241 79.4356 200.465 79.2316 201.893ZM121.246 223.52C116.553 223.52 112.677 221.48 110.161 217.807C108.052 214.747 106.896 210.599 106.896 205.634C106.896 200.669 108.052 196.521 110.161 193.46C112.677 189.856 116.553 187.748 121.246 187.748C127.095 187.748 130.903 191.352 132.875 197.677H134.236L131.651 188.768V174.894H142.261V222.5H131.651L134.236 213.591H132.875C130.903 219.916 127.095 223.52 121.246 223.52ZM117.573 205.634C117.573 208.15 118.186 210.19 119.206 211.619C120.43 213.387 122.334 214.339 124.714 214.339C127.027 214.339 128.931 213.387 130.155 211.619C131.175 210.19 131.787 208.15 131.787 205.634C131.787 203.186 131.175 201.145 130.155 199.649C128.931 197.881 127.027 196.929 124.714 196.929C122.334 196.929 120.43 197.881 119.206 199.649C118.186 201.145 117.573 203.186 117.573 205.634ZM151.309 222.5V188.768H161.85V222.5H151.309ZM151.037 184.619V175.778H162.19V184.619H151.037ZM179.809 223.52C176.68 223.52 173.96 222.5 172.192 220.664C170.491 218.964 169.539 216.719 169.539 213.931C169.539 211.075 170.423 208.762 172.124 207.062C174.164 205.022 177.292 203.73 181.441 203.39L189.942 202.642V200.805C189.942 197.745 188.106 196.045 184.705 196.045C179.605 196.045 179.537 200.261 179.537 200.737V200.941H168.859V200.737C168.859 199.581 168.995 187.748 185.045 187.748C195.111 187.748 200.551 192.236 200.551 200.805V222.5H190.214L192.662 213.591H191.302C189.466 220.392 185.929 223.52 179.809 223.52ZM180.421 213.047C180.421 213.999 180.693 214.747 181.237 215.291C181.781 215.835 182.665 216.175 183.753 216.175C188.514 216.175 189.942 211.075 189.942 208.83V208.626L184.909 209.238C183.277 209.442 182.121 209.918 181.305 210.735C180.761 211.279 180.421 212.095 180.421 213.047ZM209.433 222.5V174.894H228.679C235.276 174.894 240.444 177.614 243.097 182.239C244.389 184.483 245.069 187.068 245.069 190.06C245.069 193.12 244.389 195.773 243.097 197.949C240.444 202.574 235.276 205.362 228.679 205.362H220.518V222.5H209.433ZM220.518 195.637H227.659C230.311 195.637 232.215 194.617 233.1 192.984C233.644 192.1 233.848 191.148 233.848 190.06C233.848 189.04 233.644 188.088 233.1 187.204C232.215 185.639 230.311 184.619 227.659 184.619H220.518V195.637ZM251.13 222.5V174.894H261.671V222.5H251.13ZM279.63 223.52C276.501 223.52 273.781 222.5 272.013 220.664C270.312 218.964 269.36 216.719 269.36 213.931C269.36 211.075 270.244 208.762 271.945 207.062C273.985 205.022 277.113 203.73 281.262 203.39L289.763 202.642V200.805C289.763 197.745 287.927 196.045 284.526 196.045C279.426 196.045 279.358 200.261 279.358 200.737V200.941H268.68V200.737C268.68 199.581 268.816 187.748 284.866 187.748C294.931 187.748 300.372 192.236 300.372 200.805V222.5H290.035L292.483 213.591H291.123C289.287 220.392 285.75 223.52 279.63 223.52ZM280.242 213.047C280.242 213.999 280.514 214.747 281.058 215.291C281.602 215.835 282.486 216.175 283.574 216.175C288.335 216.175 289.763 211.075 289.763 208.83V208.626L284.73 209.238C283.098 209.442 281.942 209.918 281.126 210.735C280.582 211.279 280.242 212.095 280.242 213.047ZM308.778 222.5V188.768H319.319L316.803 197.677H318.163C320.067 191.148 323.807 187.748 329.384 187.748C337.069 187.748 341.082 192.304 341.082 200.941V222.5H330.54V203.186C330.54 199.445 328.908 197.405 325.508 197.405C321.699 197.405 319.319 200.193 319.319 204.886V222.5H308.778ZM360.697 222.5L375.795 174.894H393.137L408.235 222.5H396.47L392.457 209.034H376.475L372.463 222.5H360.697ZM379.4 199.105H389.533L385.656 186.183L385.112 180.947H383.752L383.276 186.183L379.4 199.105ZM413.712 234.742V188.768H424.254L421.737 197.677H423.098C425.002 191.352 428.878 187.748 434.727 187.748C439.42 187.748 443.296 189.856 445.812 193.46C447.853 196.521 449.009 200.669 449.009 205.634C449.009 210.599 447.853 214.747 445.812 217.807C443.296 221.48 439.42 223.52 434.727 223.52C428.878 223.52 425.002 219.916 423.098 213.591H421.737L424.254 222.5V234.742H413.712ZM424.118 205.634C424.118 208.15 424.73 210.19 425.75 211.619C427.042 213.387 428.946 214.339 431.259 214.339C433.571 214.339 435.475 213.387 436.699 211.619C437.787 210.19 438.4 208.15 438.4 205.634C438.4 203.186 437.787 201.145 436.699 199.649C435.475 197.881 433.571 196.929 431.259 196.929C428.946 196.929 427.042 197.881 425.75 199.649C424.73 201.145 424.118 203.186 424.118 205.634ZM456.085 234.742V188.768H466.626L464.11 197.677H465.47C467.374 191.352 471.251 187.748 477.099 187.748C481.792 187.748 485.669 189.856 488.185 193.46C490.225 196.521 491.381 200.669 491.381 205.634C491.381 210.599 490.225 214.747 488.185 217.807C485.669 221.48 481.792 223.52 477.099 223.52C471.251 223.52 467.374 219.916 465.47 213.591H464.11L466.626 222.5V234.742H456.085ZM466.49 205.634C466.49 208.15 467.102 210.19 468.122 211.619C469.415 213.387 471.319 214.339 473.631 214.339C475.943 214.339 477.848 213.387 479.072 211.619C480.16 210.19 480.772 208.15 480.772 205.634C480.772 203.186 480.16 201.145 479.072 199.649C477.848 197.881 475.943 196.929 473.631 196.929C471.319 196.929 469.415 197.881 468.122 199.649C467.102 201.145 466.49 203.186 466.49 205.634Z" fill="#4631FB"/>
<path d="M17.5438 274.1C14.1029 274.1 11.8223 271.98 10.7021 268.259H9.90185L11.3822 273.5H5.18067V245.493H11.3822V253.655L9.90185 258.896H10.7021C11.8223 255.175 14.1029 253.055 17.5438 253.055C20.3045 253.055 22.585 254.295 24.0654 256.416C25.2657 258.216 25.9459 260.657 25.9459 263.578C25.9459 266.498 25.2657 268.939 24.0654 270.739C22.585 272.9 20.3045 274.1 17.5438 274.1ZM11.3022 263.578C11.3022 265.058 11.6623 266.258 12.2624 267.098C13.0226 268.139 14.1429 268.699 15.5033 268.699C16.8636 268.699 17.9839 268.139 18.7041 267.098C19.3442 266.258 19.7043 265.058 19.7043 263.578C19.7043 262.137 19.3442 260.937 18.7041 260.057C17.9839 259.016 16.8636 258.456 15.5033 258.456C14.1429 258.456 13.0226 259.016 12.2624 260.057C11.6623 260.937 11.3022 262.137 11.3022 263.578ZM35.1604 281.262C30.3592 281.262 27.2784 279.141 27.2784 275.22V274.82H33.3199V275.1C33.3199 275.981 33.9601 276.541 35.0803 276.541C36.2406 276.541 37.1208 275.941 37.4809 274.46L38.1611 271.66H33.2399L27.5585 253.655H34.2401L38.3211 268.139H39.0413L42.6022 253.655H49.2839L43.3224 274.54C41.962 279.221 39.3214 281.262 35.1604 281.262ZM74.6787 274.22C68.3571 274.22 63.3558 270.779 61.3553 265.218C60.7552 263.498 60.4351 261.577 60.4351 259.496C60.4351 257.416 60.7552 255.496 61.3553 253.775C63.3558 248.214 68.3571 244.773 74.8387 244.773C82.3206 244.773 87.5219 248.934 88.002 255.696H81.2003C80.7602 252.695 78.3196 250.774 74.8387 250.774C71.5179 250.774 68.9572 252.735 67.877 255.776C67.4369 256.896 67.2768 258.136 67.2768 259.496C67.2768 260.857 67.4369 262.057 67.877 263.217C68.9572 266.258 71.5179 268.179 74.7587 268.179C78.0795 268.179 80.3601 266.298 80.8002 263.297H87.6019C87.1218 269.739 82.2406 274.22 74.6787 274.22ZM100.963 274.1C97.1624 274.1 94.0816 272.54 92.2412 269.859C91.0809 268.139 90.4407 266.018 90.4407 263.578C90.4407 261.137 91.0809 259.016 92.2412 257.296C94.0816 254.615 97.1624 253.055 100.963 253.055C104.764 253.055 107.885 254.615 109.726 257.296C110.886 259.016 111.526 261.137 111.526 263.578C111.526 266.018 110.886 268.139 109.726 269.859C107.885 272.54 104.764 274.1 100.963 274.1ZM96.6823 263.578C96.6823 264.938 97.0424 266.098 97.6025 266.938C98.3627 268.059 99.563 268.699 100.963 268.699C102.404 268.699 103.564 268.059 104.324 266.938C104.924 266.098 105.244 264.938 105.244 263.578C105.244 262.217 104.924 261.057 104.324 260.217C103.564 259.096 102.404 258.456 100.963 258.456C99.563 258.456 98.3627 259.096 97.6025 260.217C97.0424 261.057 96.6823 262.217 96.6823 263.578ZM121.997 273.5L130.879 245.493H141.082L149.964 273.5H143.042L140.682 265.578H131.279L128.919 273.5H121.997ZM133 259.737H138.961L136.681 252.135L136.361 249.054H135.56L135.28 252.135L133 259.737ZM161.397 281.262C155.075 281.262 151.835 278.461 151.634 273.7H157.636C157.836 275.42 158.956 276.501 161.397 276.501C163.838 276.501 165.318 275.1 165.318 272.42V271.7L167.078 266.338H166.278C165.278 270.299 162.837 272.22 159.756 272.22C157.076 272.22 154.835 271.019 153.395 268.979C152.275 267.338 151.634 265.178 151.634 262.657C151.634 260.097 152.275 257.936 153.395 256.296C154.835 254.255 157.076 253.055 159.756 253.055C162.837 253.055 165.278 254.975 166.278 258.936H167.078L165.398 253.655H171.519V270.459C171.519 277.701 168.159 281.262 161.397 281.262ZM157.796 262.657C157.796 263.858 158.036 264.818 158.636 265.658C159.316 266.658 160.397 267.178 161.677 267.178C162.997 267.178 164.038 266.658 164.718 265.658C165.318 264.818 165.558 263.858 165.558 262.657C165.558 261.417 165.318 260.457 164.718 259.617C164.038 258.616 162.997 258.096 161.677 258.096C160.397 258.096 159.316 258.616 158.636 259.617C158.036 260.457 157.796 261.417 157.796 262.657ZM185.549 274.1C181.708 274.1 178.828 272.78 177.107 270.259C175.907 268.539 175.267 266.338 175.267 263.658C175.267 260.937 175.987 258.656 177.187 256.936C178.948 254.415 181.868 253.055 185.269 253.055C191.431 253.055 194.872 256.936 194.872 263.578V265.178H181.228C181.388 266.298 181.668 267.218 182.148 267.899C182.829 268.859 183.869 269.379 185.429 269.379C186.99 269.379 188.23 268.699 188.71 267.338H194.912C194.231 271.379 190.55 274.1 185.549 274.1ZM181.308 261.377H188.95C188.87 258.936 187.59 257.656 185.269 257.656C183.949 257.656 182.829 258.176 182.108 259.256C181.708 259.817 181.428 260.537 181.308 261.377ZM198.784 273.5V253.655H204.985L203.505 258.896H204.305C205.425 255.055 207.626 253.055 210.907 253.055C215.428 253.055 217.788 255.736 217.788 260.817V273.5H211.587V262.137C211.587 259.937 210.627 258.736 208.626 258.736C206.386 258.736 204.985 260.377 204.985 263.137V273.5H198.784ZM231.297 274.1C227.696 274.1 224.816 272.78 223.095 270.259C221.895 268.539 221.255 266.338 221.255 263.658C221.255 260.937 221.935 258.656 223.135 256.936C224.896 254.415 227.856 253.055 231.537 253.055C237.059 253.055 240.94 256.056 241.14 261.337H235.018C234.698 259.456 233.458 258.456 231.537 258.456C230.217 258.456 229.177 259.016 228.456 260.017C227.856 260.937 227.496 262.097 227.496 263.658C227.496 265.138 227.816 266.338 228.416 267.218C229.097 268.179 230.097 268.699 231.337 268.699C233.218 268.699 234.378 267.699 234.658 265.858H240.82C240.579 271.179 236.779 274.1 231.297 274.1ZM250.292 281.262C245.491 281.262 242.41 279.141 242.41 275.22V274.82H248.452V275.1C248.452 275.981 249.092 276.541 250.212 276.541C251.373 276.541 252.253 275.941 252.613 274.46L253.293 271.66H248.372L242.69 253.655H249.372L253.453 268.139H254.173L257.734 253.655H264.416L258.454 274.54C257.094 279.221 254.453 281.262 250.292 281.262Z" fill="#333333"/>
<path d="M99.1045 0C121.147 8.68913e-05 141.532 7.24133 158.013 19.4609V23.4775C145.925 32.4352 136.056 44.2208 129.379 57.8457L125.752 58.8291C118.105 53.7552 108.949 50.7931 99.1094 50.792L99.1045 50.7979C72.4676 50.7979 50.792 72.4735 50.792 99.1104C50.792 125.747 72.4676 147.423 99.1045 147.423C108.946 147.423 118.11 144.46 125.751 139.386L129.379 140.368C133.549 148.874 138.965 156.665 145.389 163.5H138.678C133.843 157.858 129.629 151.669 126.145 145.038C118.214 149.725 108.964 152.423 99.1045 152.423C69.7062 152.423 45.792 128.509 45.792 99.1104C45.792 69.7142 69.7023 45.8013 99.0977 45.7979L99.1045 45.792C108.965 45.7921 118.21 48.49 126.144 53.1768C132.598 40.8886 141.551 30.1173 152.327 21.543C137.175 11.1125 118.843 5.00008 99.1045 5C47.2132 5 5 47.2132 5 99.1045C5.00011 123.993 14.7126 146.654 30.5449 163.5H23.8281C8.98001 146.168 0.0001004 123.667 0 99.1045C0 44.4518 44.4518 0 99.1045 0Z" fill="#4631FB"/>
</svg>
