<svg width="495" height="241" viewBox="0 0 495 241" fill="none" xmlns="http://www.w3.org/2000/svg">
<path d="M213.93 48.2813C203.579 48.2813 193.942 51.3985 185.899 56.7352C172.184 65.8405 163.117 81.4269 163.117 99.0936C163.117 116.76 172.178 132.34 185.899 141.452C193.936 146.789 203.579 149.906 213.93 149.906C241.947 149.906 264.742 127.111 264.742 99.0936C264.742 71.076 241.947 48.2813 213.93 48.2813Z" stroke="black" stroke-width="5" stroke-linejoin="bevel"/>
<path d="M7.53262 222.5V174.894H25.0788L33.6479 209.102L34.0559 215.767H35.3481L35.7561 209.102L44.3252 174.894H61.8714V222.5H51.194V181.627H49.8339L49.3578 192.304L41.6049 222.5H27.8671L20.0462 192.304L19.5701 181.627H18.2099V222.5H7.53262ZM86.4405 223.52C79.9117 223.52 75.0151 221.276 72.0907 216.991C70.0504 214.067 68.9623 210.326 68.9623 205.77C68.9623 201.145 70.1865 197.269 72.2267 194.345C75.2191 190.06 80.1837 187.748 85.9644 187.748C96.4377 187.748 102.286 194.345 102.286 205.634V208.354H79.0956C79.3676 210.258 79.8437 211.823 80.6598 212.979C81.8159 214.611 83.5841 215.495 86.2364 215.495C88.8888 215.495 90.997 214.339 91.8131 212.027H102.354C101.198 218.896 94.9415 223.52 86.4405 223.52ZM79.2316 201.893H92.2212C92.0852 197.745 89.9089 195.569 85.9644 195.569C83.7201 195.569 81.8159 196.453 80.5917 198.289C79.9117 199.241 79.4356 200.465 79.2316 201.893ZM121.246 223.52C116.553 223.52 112.677 221.48 110.161 217.807C108.052 214.747 106.896 210.599 106.896 205.634C106.896 200.669 108.052 196.521 110.161 193.46C112.677 189.856 116.553 187.748 121.246 187.748C127.095 187.748 130.903 191.352 132.875 197.677H134.236L131.651 188.768V174.894H142.261V222.5H131.651L134.236 213.591H132.875C130.903 219.916 127.095 223.52 121.246 223.52ZM117.573 205.634C117.573 208.15 118.186 210.19 119.206 211.619C120.43 213.387 122.334 214.339 124.714 214.339C127.027 214.339 128.931 213.387 130.155 211.619C131.175 210.19 131.787 208.15 131.787 205.634C131.787 203.186 131.175 201.145 130.155 199.649C128.931 197.881 127.027 196.929 124.714 196.929C122.334 196.929 120.43 197.881 119.206 199.649C118.186 201.145 117.573 203.186 117.573 205.634ZM151.309 222.5V188.768H161.85V222.5H151.309ZM151.037 184.619V175.778H162.19V184.619H151.037ZM179.809 223.52C176.68 223.52 173.96 222.5 172.192 220.664C170.491 218.964 169.539 216.719 169.539 213.931C169.539 211.075 170.423 208.762 172.124 207.062C174.164 205.022 177.292 203.73 181.441 203.39L189.942 202.642V200.805C189.942 197.745 188.106 196.045 184.705 196.045C179.605 196.045 179.537 200.261 179.537 200.737V200.941H168.859V200.737C168.859 199.581 168.995 187.748 185.045 187.748C195.111 187.748 200.551 192.236 200.551 200.805V222.5H190.214L192.662 213.591H191.302C189.466 220.392 185.929 223.52 179.809 223.52ZM180.421 213.047C180.421 213.999 180.693 214.747 181.237 215.291C181.781 215.835 182.665 216.175 183.753 216.175C188.514 216.175 189.942 211.075 189.942 208.83V208.626L184.909 209.238C183.277 209.442 182.121 209.918 181.305 210.735C180.761 211.279 180.421 212.095 180.421 213.047ZM209.433 222.5V174.894H228.679C235.276 174.894 240.444 177.614 243.097 182.239C244.389 184.483 245.069 187.068 245.069 190.06C245.069 193.12 244.389 195.773 243.097 197.949C240.444 202.574 235.276 205.362 228.679 205.362H220.518V222.5H209.433ZM220.518 195.637H227.659C230.311 195.637 232.215 194.617 233.1 192.984C233.644 192.1 233.848 191.148 233.848 190.06C233.848 189.04 233.644 188.088 233.1 187.204C232.215 185.639 230.311 184.619 227.659 184.619H220.518V195.637ZM251.13 222.5V174.894H261.671V222.5H251.13ZM279.63 223.52C276.501 223.52 273.781 222.5 272.013 220.664C270.312 218.964 269.36 216.719 269.36 213.931C269.36 211.075 270.244 208.762 271.945 207.062C273.985 205.022 277.113 203.73 281.262 203.39L289.763 202.642V200.805C289.763 197.745 287.927 196.045 284.526 196.045C279.426 196.045 279.358 200.261 279.358 200.737V200.941H268.68V200.737C268.68 199.581 268.816 187.748 284.866 187.748C294.931 187.748 300.372 192.236 300.372 200.805V222.5H290.035L292.483 213.591H291.123C289.287 220.392 285.75 223.52 279.63 223.52ZM280.242 213.047C280.242 213.999 280.514 214.747 281.058 215.291C281.602 215.835 282.486 216.175 283.574 216.175C288.335 216.175 289.763 211.075 289.763 208.83V208.626L284.73 209.238C283.098 209.442 281.942 209.918 281.126 210.735C280.582 211.279 280.242 212.095 280.242 213.047ZM308.778 222.5V188.768H319.319L316.803 197.677H318.163C320.067 191.148 323.807 187.748 329.384 187.748C337.069 187.748 341.082 192.304 341.082 200.941V222.5H330.54V203.186C330.54 199.445 328.908 197.405 325.508 197.405C321.699 197.405 319.319 200.193 319.319 204.886V222.5H308.778ZM360.697 222.5L375.795 174.894H393.137L408.235 222.5H396.47L392.457 209.034H376.475L372.463 222.5H360.697ZM379.4 199.105H389.533L385.656 186.183L385.112 180.947H383.752L383.276 186.183L379.4 199.105ZM413.712 234.742V188.768H424.254L421.737 197.677H423.098C425.002 191.352 428.878 187.748 434.727 187.748C439.42 187.748 443.296 189.856 445.812 193.46C447.853 196.521 449.009 200.669 449.009 205.634C449.009 210.599 447.853 214.747 445.812 217.807C443.296 221.48 439.42 223.52 434.727 223.52C428.878 223.52 425.002 219.916 423.098 213.591H421.737L424.254 222.5V234.742H413.712ZM424.118 205.634C424.118 208.15 424.73 210.19 425.75 211.619C427.042 213.387 428.946 214.339 431.259 214.339C433.571 214.339 435.475 213.387 436.699 211.619C437.787 210.19 438.4 208.15 438.4 205.634C438.4 203.186 437.787 201.145 436.699 199.649C435.475 197.881 433.571 196.929 431.259 196.929C428.946 196.929 427.042 197.881 425.75 199.649C424.73 201.145 424.118 203.186 424.118 205.634ZM456.085 234.742V188.768H466.626L464.11 197.677H465.47C467.374 191.352 471.251 187.748 477.099 187.748C481.792 187.748 485.669 189.856 488.185 193.46C490.225 196.521 491.381 200.669 491.381 205.634C491.381 210.599 490.225 214.747 488.185 217.807C485.669 221.48 481.792 223.52 477.099 223.52C471.251 223.52 467.374 219.916 465.47 213.591H464.11L466.626 222.5V234.742H456.085ZM466.49 205.634C466.49 208.15 467.102 210.19 468.122 211.619C469.415 213.387 471.319 214.339 473.631 214.339C475.943 214.339 477.848 213.387 479.072 211.619C480.16 210.19 480.772 208.15 480.772 205.634C480.772 203.186 480.16 201.145 479.072 199.649C477.848 197.881 475.943 196.929 473.631 196.929C471.319 196.929 469.415 197.881 468.122 199.649C467.102 201.145 466.49 203.186 466.49 205.634Z" fill="black"/>
<path d="M99.1045 0C121.147 8.68913e-05 141.532 7.24133 158.013 19.4609V23.4775C145.925 32.4352 136.056 44.2208 129.379 57.8457L125.752 58.8291C118.105 53.7552 108.949 50.7931 99.1094 50.792L99.1045 50.7979C72.4676 50.7979 50.792 72.4735 50.792 99.1104C50.792 125.747 72.4676 147.423 99.1045 147.423C108.946 147.423 118.11 144.46 125.751 139.386L129.379 140.368C133.549 148.874 138.965 156.665 145.389 163.5H138.678C133.843 157.858 129.629 151.669 126.145 145.038C118.214 149.725 108.964 152.423 99.1045 152.423C69.7062 152.423 45.792 128.509 45.792 99.1104C45.792 69.7142 69.7023 45.8013 99.0977 45.7979L99.1045 45.792C108.965 45.7921 118.21 48.49 126.144 53.1768C132.598 40.8886 141.551 30.1173 152.327 21.543C137.175 11.1125 118.843 5.00008 99.1045 5C47.2132 5 5 47.2132 5 99.1045C5.00011 123.993 14.7126 146.654 30.5449 163.5H23.8281C8.98001 146.168 0.0001004 123.667 0 99.1045C0 44.4518 44.4518 0 99.1045 0Z" fill="black"/>
</svg>
