<svg width="184" height="136" viewBox="0 0 184 136" fill="none" xmlns="http://www.w3.org/2000/svg">
<path d="M67.6939 32.0879C74.9471 32.0879 81.6996 34.2723 87.3356 38.0119C92.1386 28.2109 99.2368 19.7348 107.93 13.2924C96.6713 4.94478 82.7497 0 67.6939 0C30.3643 0 0 30.3643 0 67.6938C0 105.023 30.3643 135.388 67.6939 135.388C82.7497 135.388 96.6713 130.443 107.93 122.1C99.2368 115.653 92.1386 107.177 87.3356 97.3802C81.7041 101.12 74.9471 103.304 67.6939 103.304C48.061 103.304 32.0879 87.3312 32.0879 67.6983C32.0879 48.0654 48.061 32.0923 67.6939 32.0923V32.0879Z" fill="#161618"/>
<path d="M148.161 32.082C140.907 32.082 134.155 34.2664 128.519 38.006C118.908 44.3864 112.555 55.3083 112.555 67.688C112.555 80.0677 118.904 90.9852 128.519 97.37C134.15 101.11 140.907 103.294 148.161 103.294C167.794 103.294 183.767 87.3209 183.767 67.688C183.767 48.0551 167.794 32.082 148.161 32.082Z" fill="#161618"/>
</svg>
