<svg width="146" height="114" viewBox="0 0 146 114" fill="none" xmlns="http://www.w3.org/2000/svg">
<rect x="45.4375" width="60.8541" height="60.8541" rx="16.2278" fill="#4D4D4D"/>
<path d="M3.3339 103.723V77.7923H9.37196L16.3732 98.6107L16.7065 101.13H17.2622L17.5956 98.6107L24.5968 77.7923H30.6348V103.723H27.0046V80.3854H26.4489L26.0415 84.5713L19.5218 103.723H14.4469L7.92727 84.5713L7.5198 80.3854H6.96415V103.723H3.3339ZM44.4147 104.241C40.9326 104.241 38.5618 103.056 37.0801 100.907C36.0058 99.3515 35.4502 97.3512 35.4502 94.9434C35.4502 92.4244 36.191 90.35 37.2653 88.7942C38.7841 86.6086 41.1919 85.4233 44.0072 85.4233C49.2303 85.4233 52.2308 88.7201 52.2308 94.3507V95.8324H39.1175C39.2286 97.166 39.599 98.2773 40.1917 99.1663C41.0437 100.389 42.3773 101.093 44.3406 101.093C46.452 101.093 48.0449 100.129 48.6746 98.3514H52.1938C51.564 101.759 48.3783 104.241 44.4147 104.241ZM39.2286 92.943H48.4524C48.3412 90.0537 46.7484 88.4978 44.0072 88.4978C42.4884 88.4978 41.0437 89.2387 40.1547 90.4982C39.7102 91.165 39.4138 91.9799 39.2286 92.943ZM63.4624 104.241C60.7212 104.241 58.4616 103.056 57.0169 100.944C55.9427 99.3886 55.387 97.3142 55.387 94.8323C55.387 92.3504 55.9427 90.2759 57.0169 88.7201C58.4616 86.6086 60.7212 85.4233 63.4624 85.4233C66.7223 85.4233 68.9819 87.2384 69.9821 90.7575H70.5377L69.6116 85.9419V77.7923H73.1308V103.723H69.6116L70.5377 98.907H69.9821C68.9819 102.426 66.7223 104.241 63.4624 104.241ZM59.0173 94.8323C59.0173 96.5733 59.4247 98.018 60.1656 99.0552C61.0917 100.389 62.5364 101.093 64.3515 101.093C66.1666 101.093 67.6113 100.389 68.5374 99.0552C69.2783 98.018 69.6857 96.5733 69.6857 94.8323C69.6857 93.0912 69.2783 91.6465 68.5374 90.6093C67.6113 89.2758 66.1666 88.5719 64.3515 88.5719C62.5364 88.5719 61.0917 89.2758 60.1656 90.6093C59.4247 91.6465 59.0173 93.0912 59.0173 94.8323ZM79.0397 103.723V85.9419H82.5589V103.723H79.0397ZM78.8175 83.2007V78.8295H82.8182V83.2007H78.8175ZM92.8526 104.241C91.2597 104.241 89.8891 103.686 88.926 102.722C88.0369 101.833 87.5554 100.611 87.5554 99.1663C87.5554 97.6105 87.9999 96.4251 88.8889 95.5361C89.9632 94.4618 91.6301 93.8691 93.8157 93.758L98.8165 93.4617V92.054C98.8165 89.9425 97.52 88.5719 94.7788 88.5719C90.8522 88.5719 90.8152 91.5724 90.8152 91.9429V92.1281H87.1849V91.9429C87.1849 91.4984 87.222 85.4233 94.8159 85.4233C99.8167 85.4233 102.336 87.9052 102.336 92.054V103.723H98.7054L99.5574 98.907H99.0018C98.1127 102.5 96.1494 104.241 92.8526 104.241ZM91.1856 99.1293C91.1856 99.722 91.3708 100.166 91.7413 100.537C92.1858 100.981 92.8526 101.204 93.7046 101.204C97.1125 101.204 98.7054 98.2032 98.8165 96.2399L94.3343 96.6844C93.1489 96.7956 92.2969 97.0919 91.7783 97.6105C91.3708 98.018 91.1856 98.4995 91.1856 99.1293Z" fill="#5D5D5D"/>
<path d="M108.056 103.723V77.7923H112.649V103.723H108.056ZM130.541 100.018C134.319 100.018 137.134 97.9809 138.394 94.5359C138.801 93.3876 139.024 92.1281 139.024 90.7575C139.024 89.3869 138.801 88.1274 138.394 86.9791C137.171 83.6081 134.393 81.4967 130.541 81.4967C126.688 81.4967 123.91 83.6081 122.687 86.9791C122.28 88.1274 122.058 89.3869 122.058 90.7575C122.058 92.1281 122.28 93.3876 122.687 94.5359C123.91 97.9069 126.688 100.018 130.541 100.018ZM117.242 90.7575C117.242 88.8312 117.538 87.0161 118.131 85.4233C119.983 80.3854 124.503 77.1996 130.541 77.1996C136.579 77.1996 141.098 80.3854 142.95 85.4233C143.543 87.0161 143.839 88.8312 143.839 90.7575C143.839 92.6837 143.543 94.4989 142.95 96.0917C141.357 100.5 137.69 103.5 132.726 104.167V105.39H139.468V109.39H134.134C130.8 109.39 128.948 108.094 128.948 104.575V104.241C123.762 103.723 119.798 100.759 118.131 96.0917C117.538 94.4989 117.242 92.6837 117.242 90.7575Z" fill="#161618"/>
<path d="M76.1091 20.7422C74.1707 20.7422 72.3662 21.3259 70.86 22.3253C68.2917 24.0304 66.5938 26.9492 66.5938 30.2575C66.5938 33.5659 68.2906 36.4835 70.86 38.1898C72.365 39.1891 74.1707 39.7729 76.1091 39.7729C81.3558 39.7729 85.6244 35.5042 85.6244 30.2575C85.6244 25.0108 81.3558 20.7422 76.1091 20.7422Z" fill="black"/>
<path d="M45.4453 32.8223C46.5672 36.8279 50.2485 39.7754 54.6074 39.7754C56.5456 39.7753 58.3516 39.1907 59.8564 38.1914C61.1399 40.8093 63.0363 43.075 65.3594 44.7979C62.3507 47.0273 58.6307 48.3486 54.6074 48.3486C51.4604 48.3486 48.4992 47.5398 45.9189 46.1211C45.5009 42.6855 45.4516 38.3834 45.4453 32.8223ZM54.6074 12.168C58.6306 12.168 62.3508 13.4892 65.3594 15.7197C63.0363 17.4414 61.14 19.707 59.8564 22.3262C58.3504 21.3269 56.5456 20.7432 54.6074 20.7432V20.7441C50.2494 20.7441 46.568 23.6899 45.4453 27.6943C45.4536 22.1002 45.514 17.7954 45.9648 14.3691C48.5341 12.9662 51.4793 12.168 54.6074 12.168Z" fill="black"/>
</svg>
